<svg width="44" height="49" viewBox="0 0 44 49" fill="none" xmlns="http://www.w3.org/2000/svg">
<path d="M38.7416 32.3441C38.9771 33.0608 39.1048 33.8236 39.1048 34.6156C39.1048 38.7497 35.6442 42.1008 31.3751 42.1008C31.3276 42.1008 31.2811 42.0986 31.2336 42.0975C30.6965 45.0599 28.0283 47.3112 24.816 47.3112C23.8067 47.3112 22.8531 47.0887 22.0005 46.6933H21.9993C21.1467 47.0887 20.1942 47.3112 19.1861 47.3112C15.9727 47.3112 13.3045 45.0599 12.7674 42.0975C12.7198 42.0986 12.6734 42.1008 12.6258 42.1008C8.35673 42.1008 4.8962 38.7497 4.8962 34.6156C4.8962 33.8236 5.02381 33.0608 5.25931 32.3441C3.53078 30.7062 2.45654 28.4223 2.45654 25.8946C2.45654 23.0479 3.81848 20.5113 5.94492 18.8565C5.50524 17.9488 5.25815 16.9355 5.25815 15.8672C5.25815 13.2755 6.70129 11.0096 8.85209 9.78395C8.85209 9.78395 8.85325 9.78283 8.85557 9.7817C9.53305 9.39638 10.2801 9.11328 11.0748 8.956C11.3068 8.90994 11.5435 8.87399 11.7836 8.8504C11.7801 8.77289 11.7767 8.69425 11.7767 8.61674C11.7767 5.1297 14.6954 2.30322 18.2963 2.30322C19.6722 2.30322 20.9471 2.71776 21.9993 3.42101C21.9993 3.42213 22.0005 3.42213 22.0005 3.42213C23.0527 2.71776 24.3288 2.30322 25.7046 2.30322C29.3055 2.30322 32.2243 5.1297 32.2243 8.61674C32.2243 8.69425 32.2208 8.77289 32.2173 8.8504C35.8844 9.21776 38.7428 12.2195 38.7428 15.8672C38.7428 16.9355 38.4957 17.9488 38.056 18.8565C40.1825 20.5113 41.5444 23.0479 41.5444 25.8946C41.5444 28.4223 40.4702 30.7062 38.7416 32.3441Z" fill="#92BDED"/>
<path d="M38.7413 32.3441C38.9768 33.0608 39.1045 33.8236 39.1045 34.6156C39.1045 38.7497 35.6439 42.1008 31.3748 42.1008C31.3273 42.1008 31.2809 42.0986 31.2333 42.0975C30.6962 45.0599 28.028 47.3112 24.8157 47.3112C23.8064 47.3112 22.8528 47.0887 22.0002 46.6933H21.999V3.42101C21.999 3.42213 22.0002 3.42213 22.0002 3.42213C23.0524 2.71776 24.3285 2.30322 25.7043 2.30322C29.3052 2.30322 32.224 5.1297 32.224 8.61674C32.224 8.69425 32.2205 8.77289 32.217 8.8504C35.8841 9.21776 38.7425 12.2195 38.7425 15.8672C38.7425 16.9355 38.4954 17.9488 38.0557 18.8565C40.1822 20.5113 41.5441 23.0479 41.5441 25.8946C41.5441 28.4223 40.4699 30.7062 38.7413 32.3441Z" fill="#4C6FFF"/>
<path d="M43.2844 25.8947C43.2844 23.057 42.1394 20.3754 40.1035 18.3803C40.3552 17.5692 40.4828 16.7277 40.4828 15.8672C40.4828 11.8679 37.7299 8.46849 33.8761 7.44283C33.288 3.58731 29.8472 0.618164 25.7045 0.618164C24.4064 0.618164 23.1454 0.909125 22.0004 1.46746H21.9992C20.8542 0.909125 19.5943 0.618164 18.2962 0.618164C14.1524 0.618164 10.7116 3.58844 10.1246 7.44507C9.37285 7.64729 8.65244 7.94274 7.97379 8.32919C7.96451 8.33368 7.95523 8.3393 7.94595 8.34492C5.21395 9.91319 3.51791 12.7925 3.51791 15.8672C3.51791 16.7289 3.64552 17.5692 3.89726 18.3803C1.86247 20.3754 0.716309 23.0525 0.716309 25.8947C0.716309 28.4628 1.6409 30.886 3.3381 32.8182C2.25342 38.0971 6.06197 43.0468 11.4146 43.7118C12.961 47.892 17.7382 50.0209 21.9992 48.5189H22.0004C26.2463 50.0152 31.0339 47.9089 32.5861 43.7118C37.9387 43.0468 41.7485 38.0971 40.6626 32.8182C42.3598 30.886 43.2844 28.4628 43.2844 25.8947ZM20.2602 16.9266C18.3716 15.4044 16.5886 14.9112 16.4679 14.8797C15.541 14.6348 14.5839 15.1628 14.331 16.0604C14.0781 16.9592 14.6245 17.8848 15.5515 18.1309C15.5828 18.1387 18.6234 19.0251 20.2602 22.2807V45.5082C17.6036 46.1002 14.9563 44.4297 14.4807 41.8065C14.3322 40.9842 13.5874 40.3922 12.7243 40.4124L12.6257 40.4158C9.32297 40.4158 6.63621 37.814 6.63621 34.6157C6.63621 34.054 6.71974 33.499 6.88331 32.9643C7.22554 31.8532 8.86125 30.2917 10.4239 29.2851C10.8624 30.0367 11.4587 30.7669 12.2615 31.4229C12.9969 32.024 14.0944 31.9341 14.7139 31.2219C15.3345 30.5107 15.2406 29.448 14.5062 28.8481C12.0956 26.8765 12.845 23.5782 12.8821 23.4243C13.1037 22.5222 12.5318 21.6157 11.6014 21.3955C10.6675 21.1753 9.72668 21.7291 9.49814 22.6335C9.4703 22.7458 9.12691 24.168 9.34269 25.9756C7.96103 26.7395 6.31719 27.9651 5.10258 29.3795C4.51094 28.3224 4.19656 27.1327 4.19656 25.8947C4.19656 23.6602 5.23135 21.5741 7.03528 20.1698C7.66057 19.6834 7.86126 18.8442 7.5202 18.141C7.17333 17.4254 6.99816 16.6603 6.99816 15.8672C6.99816 13.972 8.04687 12.1982 9.7348 11.2366C9.7348 11.2366 9.7348 11.2366 9.7348 11.2354C9.74176 11.2321 9.74872 11.2276 9.75568 11.2242C9.75684 11.2242 9.75684 11.2231 9.75684 11.2231C11.6977 10.1311 13.6512 10.4423 15.5897 10.9108C16.5213 11.1354 17.4656 10.5861 17.6988 9.68289C17.9308 8.77967 17.3623 7.86522 16.4308 7.63942C15.1872 7.3406 14.4517 7.19793 13.7661 7.14513C14.403 5.31286 16.1918 3.98837 18.2962 3.98837C18.9807 3.98837 19.6465 4.12879 20.2602 4.39729V16.9266ZM37.5246 31.1399C37.0548 31.5847 36.8842 32.2486 37.0838 32.8553C37.2694 33.4226 37.3645 34.0158 37.3645 34.6157C37.3645 37.814 34.6777 40.4158 31.3762 40.4158L31.2764 40.4124C30.4144 40.3899 29.6685 40.9842 29.52 41.8065C29.0444 44.4241 26.404 46.1024 23.7405 45.5082V30.7714C24.2474 29.9311 25.8565 27.6157 28.165 27.6157H28.2196C29.172 27.6157 29.9481 26.8732 29.9585 25.9486C29.969 25.0184 29.1987 24.2556 28.237 24.2455C26.4261 24.2264 24.9249 24.8791 23.7405 25.7363V4.39729C24.3542 4.12879 25.0201 3.98837 25.7045 3.98837C28.4342 3.98837 30.5919 6.20933 30.4782 8.77855C30.44 9.66941 31.1233 10.4344 32.0386 10.5266C34.9898 10.822 37.194 13.3115 36.9875 16.2402C35.2775 15.4516 33.3622 15.082 31.4458 15.2111C30.4864 15.2752 29.7636 16.0807 29.8309 17.0086C29.897 17.9376 30.7277 18.6364 31.6871 18.5724C36.0606 18.2769 39.8042 21.6303 39.8042 25.8947C39.8042 27.8842 38.9944 29.7468 37.5246 31.1399Z" fill="#4C6FFF"/>
<path d="M34.1823 31.4538C33.3447 35.7249 28.8796 36.9865 28.6893 37.0382C28.6893 37.0382 27.1893 37.4482 26.5722 35.9575C26.1511 34.2275 27.7357 33.7972 27.7357 33.7972L27.7462 33.7938H27.7473C27.9585 33.7309 30.3424 32.9737 30.7635 30.8247C30.9434 29.9102 31.854 29.3103 32.7983 29.4833C33.7426 29.6575 34.3621 30.5393 34.1823 31.4538Z" fill="#4643F8"/>
<path d="M43.2842 25.8947C43.2842 23.057 42.1392 20.3754 40.1033 18.3803C40.355 17.5692 40.4826 16.7277 40.4826 15.8672C40.4826 11.8679 37.7298 8.46849 33.876 7.44283C33.2878 3.58731 29.847 0.618164 25.7043 0.618164C24.4062 0.618164 23.1452 0.909125 22.0002 1.46746H21.999V48.5189H22.0002C26.2461 50.0152 31.0338 47.9089 32.5859 43.7118C37.9386 43.0468 41.7483 38.0971 40.6624 32.8182C42.3597 30.886 43.2842 28.4628 43.2842 25.8947ZM37.5244 31.1399C37.0546 31.5847 36.8841 32.2486 37.0836 32.8553C37.2692 33.4226 37.3643 34.0158 37.3643 34.6157C37.3643 37.814 34.6776 40.4158 31.376 40.4158L31.2762 40.4124C30.4143 40.3899 29.6683 40.9842 29.5198 41.8065C29.0442 44.4241 26.4039 46.1024 23.7403 45.5082V30.7714C24.2473 29.9311 25.8563 27.6157 28.1649 27.6157H28.2194C29.1718 27.6157 29.9479 26.8732 29.9584 25.9486C29.9688 25.0184 29.1985 24.2556 28.2368 24.2455C26.4259 24.2264 24.9248 24.8791 23.7403 25.7363V4.39729C24.354 4.12879 25.0199 3.98837 25.7043 3.98837C28.434 3.98837 30.5918 6.20933 30.4781 8.77855C30.4398 9.66941 31.1231 10.4344 32.0384 10.5266C34.9896 10.822 37.1938 13.3115 36.9873 16.2402C35.2773 15.4516 33.362 15.082 31.4456 15.2111C30.4862 15.2752 29.7635 16.0807 29.8307 17.0086C29.8969 17.9376 30.7275 18.6364 31.6869 18.5724C36.0604 18.2769 39.804 21.6303 39.804 25.8947C39.804 27.8842 38.9943 29.7468 37.5244 31.1399Z" fill="#4643F8"/>
</svg>
