<svg width="8" height="9" viewBox="0 0 8 9" fill="none" xmlns="http://www.w3.org/2000/svg">
<path d="M2.11357 4.41276H2.93891V5.2381H2.11357V4.41276ZM7.89095 2.34941V8.12679C7.89095 8.58072 7.51954 8.95213 7.06561 8.95213H1.28823C1.06934 8.95213 0.859408 8.86517 0.704627 8.71039C0.549846 8.55561 0.462891 8.34568 0.462891 8.12679L0.467017 2.34941C0.467017 1.89547 0.830167 1.52407 1.28823 1.52407H1.7009V0.69873H2.52624V1.52407H5.8276V0.69873H6.65294V1.52407H7.06561C7.51954 1.52407 7.89095 1.89547 7.89095 2.34941ZM1.28823 3.17475H7.06561V2.34941H1.28823V3.17475ZM7.06561 8.12679V4.00009H1.28823V8.12679H7.06561ZM5.41493 5.2381H6.24027V4.41276H5.41493V5.2381ZM3.76425 5.2381H4.58959V4.41276H3.76425V5.2381Z" fill="#869BBA"/>
</svg>
