<svg width="11" height="11" viewBox="0 0 11 11" fill="none" xmlns="http://www.w3.org/2000/svg">
<g clip-path="url(#clip0)">
<path d="M5.52883 0.989746C3.13599 0.989746 1.1958 2.92994 1.1958 5.32278C1.1958 7.71562 3.13599 9.65581 5.52883 9.65581C7.92167 9.65581 9.86187 7.71562 9.86187 5.32278C9.86187 2.92994 7.92167 0.989746 5.52883 0.989746ZM5.52883 8.92074C3.54222 8.92074 1.93087 7.3094 1.93087 5.32278C1.93087 3.33616 3.54222 1.72481 5.52883 1.72481C7.51545 1.72481 9.1268 3.33616 9.1268 5.32278C9.1268 7.3094 7.51545 8.92074 5.52883 8.92074Z" fill="#869BBA"/>
<path d="M7.21745 6.54599L5.83823 5.54881V3.15501C5.83823 3.11246 5.80341 3.07764 5.76086 3.07764H5.29564C5.25308 3.07764 5.21826 3.11246 5.21826 3.15501V5.81866C5.21826 5.84381 5.22987 5.86702 5.25018 5.88153L6.84992 7.04796C6.88473 7.07311 6.93309 7.06537 6.95824 7.03152L7.23486 6.65431C7.26001 6.61853 7.25227 6.57017 7.21745 6.54599Z" fill="#869BBA"/>
</g>
<defs>
<clipPath id="clip0">
<rect width="9.90407" height="9.90407" fill="white" transform="translate(0.576172 0.368652)"/>
</clipPath>
</defs>
</svg>
