<svg width="21" height="15" viewBox="0 0 21 15" fill="none" xmlns="http://www.w3.org/2000/svg">
<path fill-rule="evenodd" clip-rule="evenodd" d="M3.5333 0.0107422H17.5333C18.983 0.0107422 20.1583 1.18599 20.1583 2.63574V3.01136C20.1584 3.01793 20.1584 3.0245 20.1583 3.03107V12.2607C20.1583 13.7105 18.983 14.8857 17.5333 14.8857H3.5333C2.08355 14.8857 0.908297 13.7105 0.908297 12.2607V3.03407C0.908172 3.0255 0.908172 3.01693 0.908297 3.00836V2.63574C0.908297 1.18599 2.08355 0.0107422 3.5333 0.0107422ZM2.6583 4.70256V12.2607C2.6583 12.744 3.05005 13.1357 3.5333 13.1357H17.5333C18.0165 13.1357 18.4083 12.744 18.4083 12.2607V4.70254L12.0386 9.16131C11.1348 9.794 9.93178 9.794 9.02794 9.16131L2.6583 4.70256ZM18.4057 2.56819L11.0351 7.72766C10.7338 7.93855 10.3328 7.93855 10.0315 7.72766L2.66086 2.56821C2.69534 2.11652 3.07277 1.76074 3.5333 1.76074H17.5333C17.9938 1.76074 18.3712 2.1165 18.4057 2.56819Z" fill="#829CC3"/>
</svg>
