<svg width="17" height="17" viewBox="0 0 17 17" fill="none" xmlns="http://www.w3.org/2000/svg">
<path opacity="0.4" d="M8.42736 16.4202C6.60093 15.2327 4.90309 13.8325 3.3649 12.2452C2.27899 11.1119 1.44968 9.72805 0.940322 8.19946C0.030216 5.21838 1.08964 1.81143 4.04748 0.799989C5.60869 0.283892 7.30663 0.600712 8.61223 1.65173C9.9183 0.601887 11.6157 0.28517 13.177 0.799989C16.1348 1.81143 17.2014 5.21838 16.2912 8.19946C15.786 9.72661 14.9616 11.1103 13.8809 12.2452C12.3413 13.8308 10.6436 15.2309 8.81842 16.4202L8.61934 16.5571L8.42736 16.4202Z" fill="#FF009B"/>
<path d="M8.61517 16.5573L8.42723 16.4204C6.59855 15.233 4.89834 13.8328 3.35766 12.2454C2.26661 11.1136 1.43235 9.72965 0.918861 8.19961C0.0158651 5.21853 1.07529 1.81158 4.03313 0.800144C5.59434 0.284047 7.31467 0.601109 8.61517 1.66092V16.5573Z" fill="#FF009B"/>
<path d="M13.591 6.45126C13.4303 6.44037 13.2806 6.35583 13.1771 6.21745C13.0735 6.07906 13.0252 5.89899 13.0434 5.71942C13.0608 5.12796 12.7411 4.58961 12.248 4.38014C11.9354 4.29031 11.7461 3.93391 11.8243 3.58243C11.8985 3.23661 12.2061 3.02158 12.5153 3.09942C12.5544 3.10623 12.5919 3.12112 12.6261 3.14333C13.6147 3.54377 14.2547 4.62152 14.2038 5.79992C14.2022 5.97853 14.136 6.14874 14.0205 6.27155C13.905 6.39435 13.7499 6.45921 13.591 6.45126Z" fill="#FF009B"/>
</svg>
