<svg width="21" height="19" viewBox="0 0 21 19" fill="none" xmlns="http://www.w3.org/2000/svg">
<path d="M19.4484 5.63115C19.3638 4.93401 19.3518 3.73328 19.9431 3.33009C19.9537 3.3227 19.9616 3.31203 19.9708 3.30286C20.4542 3.13353 20.7888 2.8959 20.5262 2.57615L13.3948 0.223145L1.84753 1.98119C1.84753 1.98119 0.525223 2.18816 0.643347 4.43781C0.707472 5.66222 1.05816 6.26355 1.36485 6.55949L0.417285 6.87219C0.154286 7.19195 0.488785 7.42965 0.972284 7.59869C0.981472 7.60814 0.989222 7.61875 0.999972 7.62614C1.59091 8.02967 1.57953 9.23026 1.49453 9.92754C-0.6284 10.5877 0.133661 10.8028 0.133661 10.8028L0.599347 10.9262C0.271785 11.2503 -0.0535264 11.865 0.00741097 13.0307C0.125598 15.28 1.21172 15.4352 1.21172 15.4352L8.76821 18.1248L20.1738 15.0996C20.1738 15.0996 20.9361 14.8841 18.8126 14.2239C18.7273 13.5277 18.7154 12.3273 19.3077 11.9227C19.3186 11.9155 19.3265 11.9047 19.3353 11.8956C19.8188 11.7263 20.1531 11.4889 19.8904 11.1691L19.3946 11.0052C19.7253 10.7869 20.2219 10.2163 20.2997 8.73413C20.3534 7.71463 20.1105 7.11755 19.8294 6.76604L20.8092 6.50638C20.8093 6.50679 21.5716 6.29133 19.4484 5.63115ZM9.90833 5.60234L11.8263 5.17068L18.3081 3.71206L19.2738 3.49456C18.9652 4.11299 18.9781 4.95933 19.0292 5.5033C19.0404 5.62636 19.0533 5.73874 19.0658 5.82416L18.0088 6.11195L9.82771 8.3406L9.90833 5.60234ZM1.66941 7.79129L2.63497 8.00879L8.85977 9.41006L9.40358 9.53202L11.0344 9.89907L11.1148 12.6374L2.70647 10.3466L1.87753 10.121C1.88972 10.0355 1.9026 9.92323 1.91428 9.79983C1.96503 9.25627 1.97822 8.40972 1.66941 7.79129ZM1.29428 4.32954C1.2826 3.73116 1.37997 3.29841 1.57678 3.07844C1.70203 2.938 1.84985 2.90877 1.95122 2.90877C2.00478 2.90877 2.04334 2.91692 2.04597 2.91692L7.0214 4.69317L9.50371 5.57941L9.42227 8.33683L2.45841 6.19887L2.09091 6.08615C2.07741 6.08197 2.05909 6.0791 2.04497 6.07841C2.01628 6.07616 1.32778 6.00676 1.29428 4.32954ZM8.78621 16.9302L1.45503 14.6794C1.44147 14.6751 1.42335 14.6722 1.40922 14.6715C1.38003 14.6693 0.691222 14.6 0.65791 12.9232C0.646035 12.3241 0.74391 11.8917 0.940347 11.6716C1.06591 11.5311 1.21378 11.5019 1.31497 11.5019C1.36866 11.5019 1.4071 11.5098 1.40991 11.5098C1.40991 11.5098 1.41022 11.5098 1.40991 11.5098L8.86714 14.1727L8.78621 16.9302ZM18.3928 14.0962C18.4043 14.2197 18.4172 14.3319 18.4297 14.4174L9.19146 16.9341L9.27221 14.1957L11.2473 13.7511L11.539 13.8283L12.6322 13.4392L17.6716 12.3053L18.6377 12.0876C18.3288 12.706 18.3416 13.5527 18.3928 14.0962ZM18.9016 10.3747C18.8848 10.3751 18.868 10.3776 18.8522 10.3831L18.1554 10.5967L11.5212 12.6338L11.4401 9.87635L13.6167 9.09892L18.8871 7.21673C18.8878 7.21638 19.1644 7.14911 19.3674 7.37517C19.5639 7.59514 19.6614 8.02789 19.6499 8.62627C19.6155 10.3029 18.9267 10.3726 18.9016 10.3747Z" fill="#1D91E0"/>
</svg>
