<svg width="25" height="25" viewBox="0 0 25 25" fill="none" xmlns="http://www.w3.org/2000/svg">
<path d="M22.8779 14.9695C22.6757 14.4695 22.1065 14.2279 21.6065 14.4301C21.1064 14.6322 20.8649 15.2014 21.0671 15.7015L22.2172 18.5465L18.8013 17.0407C18.5541 16.9317 18.2727 16.93 18.0241 17.0361C16.8567 17.5341 15.6062 17.7867 14.3071 17.7867C9.07897 17.7867 5.56692 13.6932 5.56692 9.8699C5.56692 5.50458 9.48776 1.95312 14.3071 1.95312C19.1265 1.95312 23.0474 5.50458 23.0474 9.8699C23.0474 10.2105 23.0156 10.6183 22.9604 10.9887C22.8808 11.5221 23.2487 12.0191 23.7822 12.0987C24.3157 12.1784 24.8126 11.8103 24.8921 11.2769C24.962 10.8086 25.0005 10.3089 25.0005 9.8699C25.0005 7.21708 23.8771 4.72792 21.8372 2.86098C19.8215 1.01606 17.1473 0 14.3071 0C11.467 0 8.79279 1.01606 6.77702 2.86093C4.95417 4.52929 3.86394 6.69471 3.65247 9.02962C1.35965 10.548 0.00052084 12.981 0.00052084 15.6018C0.00052084 17.2389 0.516291 18.7922 1.49808 20.129L0.0717121 23.6574C-0.0772622 24.0258 0.0119466 24.4479 0.297346 24.7245C0.483332 24.9049 0.7284 25 0.977277 25C1.11024 25 1.24432 24.9729 1.37098 24.917L5.48371 23.104C6.51828 23.4891 7.61188 23.6841 8.74069 23.6841C8.7651 23.6841 8.78908 23.6822 8.81305 23.6804C10.4457 23.6681 12.033 23.2386 13.4077 22.435C14.639 21.715 15.6519 20.7261 16.362 19.5582C17.0553 19.4337 17.733 19.2456 18.3907 18.9942L23.63 21.3037C23.7567 21.3595 23.8907 21.3867 24.0237 21.3867C24.2725 21.3867 24.5177 21.2916 24.7036 21.1112C24.989 20.8346 25.0783 20.4126 24.9293 20.0441L22.8779 14.9695ZM8.74079 21.7285C8.72746 21.7285 8.71447 21.7299 8.70124 21.7305C7.70407 21.7254 6.74431 21.5294 5.84797 21.147C5.59949 21.0409 5.31809 21.0426 5.07082 21.1516L2.78387 22.1597L3.52161 20.3348C3.65798 19.9974 3.59544 19.6122 3.3594 19.3353C2.43973 18.2563 1.95364 16.9653 1.95364 15.6018C1.95364 14.0412 2.61014 12.5625 3.75877 11.4413C4.11638 13.3908 5.12541 15.2556 6.64753 16.7206C8.54162 18.5435 11.047 19.5995 13.7523 19.7267C12.4822 20.9769 10.6646 21.7285 8.74079 21.7285Z" fill="#4C6FFF"/>
</svg>
