<svg width="15" height="18" viewBox="0 0 15 18" fill="none" xmlns="http://www.w3.org/2000/svg">
<path fill-rule="evenodd" clip-rule="evenodd" d="M3.1806 6.18912V4.58825C3.1806 2.12914 5.15426 0.130859 7.59489 0.130859C10.0355 0.130859 12.0092 2.12914 12.0092 4.58825V6.18912H13.2586C13.9688 6.18912 14.5332 6.77177 14.5332 7.47712V16.3429C14.5332 17.0482 13.9688 17.6309 13.2586 17.6309H1.80779C1.09761 17.6309 0.533203 17.0482 0.533203 16.3429V7.47712C0.533203 6.77177 1.09761 6.18912 1.80779 6.18912H3.1806ZM2.12815 7.78006V16.04H12.9383V7.78006H2.12815ZM10.4142 6.16459V4.58824C10.4142 3.00249 9.14929 1.72175 7.59489 1.72175C6.04049 1.72175 4.77554 3.00249 4.77554 4.58824V6.16459H10.4142Z" fill="#829CC4"/>
</svg>
