<svg width="48" height="48" viewBox="0 0 48 48" fill="none" xmlns="http://www.w3.org/2000/svg">
<g clip-path="url(#clip0)">
<path d="M24 47.9062C10.745 47.9062 0 37.1704 0 23.9275C0 10.6842 10.745 -0.0512695 24 -0.0512695C37.255 -0.0512695 48 10.6842 48 23.9275C48 37.1704 37.255 47.9062 24 47.9062ZM5.25 23.9275C5.25 28.1426 6.6438 32.0325 8.99561 35.1628L35.2452 8.93628C32.1123 6.58667 28.2191 5.19397 24 5.19397C13.6447 5.19397 5.25 13.5813 5.25 23.9275ZM38.9637 12.639L12.7017 38.8781C15.8438 41.2522 19.7571 42.661 24 42.661C34.3553 42.661 42.75 34.2737 42.75 23.9275C42.75 19.6882 41.3401 15.7786 38.9637 12.639Z" fill="#4C6FFF"/>
<path d="M24.0001 47.9062C23.5248 47.9062 23.0524 47.8923 22.584 47.8649C35.1886 47.1423 45.1876 36.702 45.1876 23.9275C45.1876 11.1526 35.1886 0.712646 22.584 -0.0098877C23.0524 -0.0373535 23.5248 -0.0512695 24.0001 -0.0512695C37.2551 -0.0512695 48.0001 10.6842 48.0001 23.9275C48.0001 37.1704 37.2551 47.9062 24.0001 47.9062Z" fill="#4643F8"/>
</g>
<defs>
<clipPath id="clip0">
<rect width="48" height="48" fill="white" transform="matrix(1 0 0 -1 0 48)"/>
</clipPath>
</defs>
</svg>
