<svg width="48" height="49" viewBox="0 0 48 49" fill="none" xmlns="http://www.w3.org/2000/svg">
<g clip-path="url(#clip0)">
<path d="M42.3728 32.7219C41.0827 36.2913 39.1315 39.3949 36.5728 41.9456C33.6603 44.8489 29.8466 47.1559 25.2374 48.8015C25.0862 48.8553 24.9283 48.8995 24.7698 48.932C24.5603 48.9742 24.3472 48.997 24.1359 49H24.0945C23.8693 49 23.6429 48.9768 23.4185 48.932C23.2599 48.8995 23.1042 48.8553 22.9537 48.8026C18.3391 47.1596 14.5206 44.8538 11.6052 41.9505C9.0454 39.3998 7.09459 36.298 5.80626 32.7286C3.46361 26.2387 3.59691 19.0894 3.70421 13.3442L3.70604 13.256C3.72765 12.7816 3.74156 12.2833 3.74925 11.733C3.78844 9.03122 5.89269 6.79602 8.53966 6.64537C14.0585 6.33097 18.3278 4.49354 21.9756 0.86392L22.0074 0.834012C22.6132 0.266896 23.3763 -0.0112414 24.1359 0.000347681C24.8683 0.0100676 25.5978 0.287831 26.1819 0.834012L26.213 0.86392C29.8616 4.49354 34.1309 6.33097 39.6497 6.64537C42.2966 6.79602 44.4009 9.03122 44.4401 11.733C44.4478 12.287 44.4617 12.7846 44.4833 13.256L44.4844 13.2934C44.5913 19.0494 44.7239 26.2129 42.3728 32.7219Z" fill="#4C6FFF"/>
<path d="M42.3727 32.722C41.0825 36.2914 39.1314 39.3951 36.5726 41.9458C33.6602 44.849 29.8464 47.156 25.2373 48.8016C25.0861 48.8555 24.9282 48.8996 24.7697 48.9321C24.5602 48.9744 24.347 48.9972 24.1357 49.0002V0.000488281C24.8682 0.0102082 25.5977 0.287972 26.1818 0.834153L26.2129 0.86406C29.8615 4.49368 34.1307 6.33111 39.6495 6.64551C42.2965 6.79616 44.4008 9.03136 44.44 11.7331C44.4476 12.2871 44.4616 12.7847 44.4832 13.2561L44.4843 13.2935C44.5912 19.0495 44.7238 26.2131 42.3727 32.722Z" fill="#4643F8"/>
<path d="M36.0565 24.5C36.0565 31.219 30.7124 36.6883 24.136 36.7122H24.0939C17.4981 36.7122 12.1309 31.2336 12.1309 24.5C12.1309 17.7667 17.4981 12.2881 24.0939 12.2881H24.136C30.7124 12.312 36.0565 17.7813 36.0565 24.5Z" fill="white"/>
<path d="M36.0563 24.5C36.0563 31.219 30.7122 36.6883 24.1357 36.7122V12.2881C30.7122 12.312 36.0563 17.7813 36.0563 24.5Z" fill="#E1EBF0"/>
<path d="M29.5235 22.7415L24.1358 28.2422L22.9716 29.4306C22.6966 29.7114 22.3359 29.8515 21.9755 29.8515C21.6148 29.8515 21.2545 29.7114 20.9791 29.4306L18.476 26.8743C17.926 26.3128 17.926 25.4032 18.476 24.8413C19.0253 24.2798 19.9174 24.2798 20.4675 24.8413L21.9755 26.3808L27.5321 20.7085C28.0821 20.1466 28.9742 20.1466 29.5235 20.7085C30.0736 21.27 30.0736 22.1807 29.5235 22.7415Z" fill="#B4D2D7"/>
<path d="M29.5234 22.7415L24.1357 28.2422V24.1751L27.532 20.7085C28.082 20.1466 28.9741 20.1466 29.5234 20.7085C30.0735 21.27 30.0735 22.1807 29.5234 22.7415Z" fill="#6FA5AA"/>
</g>
<defs>
<clipPath id="clip0">
<rect width="48" height="49" fill="white"/>
</clipPath>
</defs>
</svg>
