<svg width="20" height="21" viewBox="0 0 20 21" fill="none" xmlns="http://www.w3.org/2000/svg">
<path fill-rule="evenodd" clip-rule="evenodd" d="M10.946 0.882843H10.446C8.97118 0.879088 7.51382 1.22428 6.19517 1.89033C2.9809 3.49676 0.947419 6.78494 0.946027 10.3825L0.95232 10.7509C0.992915 11.8544 1.22852 12.9423 1.64726 13.9634L1.75303 14.2079L1.0577 15.886C0.744745 16.6411 0.753448 17.4912 1.08179 18.2397L1.15727 18.3991C1.87344 19.8046 3.57111 20.4237 5.03422 19.7819L6.63203 19.0799L6.86553 19.1817C8.00023 19.647 9.21749 19.8861 10.4486 19.8829C14.044 19.8815 17.3322 17.8481 18.9405 14.63C19.6047 13.3151 19.9499 11.8577 19.9461 10.3804L19.9461 9.88293C19.6833 5.09346 15.9673 1.29367 11.2682 0.902828L10.946 0.882843ZM10.4435 2.88284L10.904 2.88193L10.8909 2.88132C14.6978 3.09142 17.7375 6.13115 17.9476 9.93803L17.9461 10.3829C17.9491 11.5479 17.6775 12.6946 17.1534 13.7321C15.8818 16.2765 13.2859 17.8818 10.4456 17.8829C9.28105 17.886 8.13441 17.6144 7.09688 17.0903C6.8304 16.9557 6.51772 16.9472 6.24432 17.0672L4.23081 17.9504C3.72504 18.1722 3.13519 17.9421 2.91333 17.4363C2.80388 17.1868 2.80098 16.9035 2.9053 16.6518L3.76983 14.5658C3.88139 14.2966 3.87 13.9922 3.73863 13.7321C3.21457 12.6945 2.94299 11.5479 2.94602 10.3855C2.94713 7.5431 4.5525 4.94717 7.09309 3.67743C8.13438 3.15148 9.28105 2.87988 10.4435 2.88284Z" fill="white"/>
</svg>
