<?xml version="1.0" encoding="utf-8"?>
<!-- Generator: Adobe Illustrator 23.1.0, SVG Export Plug-In . SVG Version: 6.00 Build 0)  -->
<svg version="1.1" id="Layer_1" xmlns="http://www.w3.org/2000/svg" xmlns:xlink="http://www.w3.org/1999/xlink" x="0px" y="0px"
	 viewBox="0 0 731.23 731.23" style="enable-background:new 0 0 731.23 731.23;" xml:space="preserve">
<style type="text/css">
	.st0{fill:#C4A397;}
	.st1{fill:#3C7F97;}
</style>
<g>
	<path class="st0" d="M241.58,108.67c-0.95-18.99,15.85-36.31,34.89-35.75c58.75-0.47,117.54-0.22,176.29-0.13
		c19.6-1.29,37.56,15.85,36.87,35.49c0.6,40.1-0.3,80.24,0.39,120.34c-11.59-5.94-23.77-11.89-37.08-11.46
		c-57.41-0.22-114.83-0.09-172.24-0.09c-14.17-0.78-27.26,5-39.37,11.63C241.71,188.7,240.98,148.64,241.58,108.67z"/>
	<path class="st0" d="M72.88,276.86c-0.69-19.08,16.5-36.05,35.53-35.23c40.06-0.65,80.11,0.13,120.12-0.26
		c-6.59,12.19-12.28,25.37-11.5,39.58c-0.09,56.03,0.04,112.03-0.04,168.06c-0.86,14.6,4.74,28.3,11.33,41.05
		c-40.06-0.73-80.11,0.26-120.17-0.43c-19.55,0.73-36.52-17.1-35.32-36.52C72.66,394.36,72.49,335.56,72.88,276.86z"/>
	<path class="st0" d="M502.76,241.33c40.79,0.56,81.62-0.6,122.41,0.47c18.13,0.13,33.55,16.84,33.12,34.8
		c0.56,54.61-0.17,109.23,0.3,163.84c-0.22,11.84,0.86,25.15-7.11,35.02c-6.93,9.82-18.95,14.64-30.71,14.3
		c-30.15,0.3-60.3,0-90.4-0.04c-9.78-25.41-16.11-52.29-16.24-79.59c-0.26-44.45,0.39-88.94-0.17-133.39
		C514.09,263.94,508.4,252.4,502.76,241.33z"/>
	<path class="st0" d="M241.33,502.72c9.69,4.57,19.38,10.38,30.41,10.9c47.46,2.58,95.4-3.01,142.52,4.87
		c25.71,3.83,50.82,10.68,75.5,18.78c-0.3,29.55,0.65,59.09-0.34,88.6c-0.52,18.52-18.18,33.68-36.48,32.56
		c-58.96,0.13-117.93,0.34-176.85-0.09c-17.57,0.17-33.9-14.82-34.28-32.56C240.68,584.77,241.89,543.72,241.33,502.72z"/>
	<g>
		<path class="st1" d="M272.55,243.48c54.14-1.59,108.45-0.04,162.63-0.73c12.32,0.34,25.93-1.59,36.74,5.73
			c10.98,6.76,16.97,19.6,16.41,32.35c0.17,43.16-0.04,86.27,0,129.43c0.3,31.14,7.45,61.98,18.99,90.84
			c3.83,6.55-4.52,14.6-11.11,11.03c-23.13-6.85-46.26-13.95-70.12-17.79c-49.49-9.56-100.05-4.39-150.06-6.25
			c-18.09-0.34-33.42-17.01-33.08-34.93c-0.3-57.41-0.09-114.78-0.13-172.19C241.54,263.29,254.76,245.76,272.55,243.48z
			 M294.82,351.8c-9.26,6.07-9.48,20.98-0.43,27.31c9.86,8.31,26.79,0.65,27.09-12.23C323.25,353.22,305.54,343.19,294.82,351.8z
			 M355.25,352.28c-10.04,7.06-8.01,24.08,3.27,28.77c11.41,5.9,26.01-5.04,23.86-17.57C381.3,351.03,364.77,343.88,355.25,352.28z
			 M418.47,350.77c-11.59,5.64-11.54,24.08,0.04,29.8c11.46,6.93,27.39-4.26,24.81-17.36C442.12,351.97,428.21,344.78,418.47,350.77
			z"/>
	</g>
</g>
</svg>
